<svg width="310" height="50" viewBox="0 0 310 50" fill="none" xmlns="http://www.w3.org/2000/svg">
<g opacity="0.2" clip-path="url(#clip0)">
<circle cx="155.378" cy="-91.9538" r="141.046" fill="white"/>
<path fill-rule="evenodd" clip-rule="evenodd" d="M52.9062 4.96832C78.616 -22.2038 115.017 -39.1558 155.377 -39.1558C195.737 -39.1558 232.138 -22.2038 257.848 4.96832C232.138 32.1405 195.737 49.0924 155.377 49.0924C115.017 49.0924 78.616 32.1405 52.9062 4.96832Z" fill="#ED2E5C"/>
<mask id="mask0" mask-type="alpha" maskUnits="userSpaceOnUse" x="14" y="-233" width="283" height="283">
<circle cx="155.378" cy="-91.9538" r="141.046" fill="white"/>
</mask>
<g mask="url(#mask0)">
<path d="M12.2188 7.92688H283.9" stroke="#263238" stroke-width="0.398103" stroke-miterlimit="10" stroke-linecap="round" stroke-linejoin="round"/>
<path d="M143.357 -14.7367V-13.7112C143.357 -12.7882 143.974 -12.0704 144.797 -11.814L146.339 4.33781C146.545 6.44011 148.344 8.08092 150.451 8.08092H161.709C163.868 8.08092 165.616 6.44011 165.822 4.33781L167.364 -11.814C168.187 -12.0704 168.803 -12.8395 168.803 -13.7112V-14.7367H143.357Z" fill="#263238"/>
<path d="M233.937 -24.3258C233.937 -24.3258 234.811 -18.6855 234.605 -16.8396C233.937 -10.5327 230.699 -4.32835 229.311 7.92649H281.848C281.848 7.92649 282.31 -14.3784 280.254 -24.3258H233.937Z" fill="#858585" stroke="#263238" stroke-width="0.530804" stroke-miterlimit="10" stroke-linecap="round" stroke-linejoin="round"/>
<path d="M254.961 7.92636C254.961 7.92636 253.882 5.3113 253.265 4.49089C250.078 0.235021 250.437 -3.40555 249.255 -7.35376C248.895 -8.58438 246.428 -11.5583 246.428 -11.5583" stroke="#263238" stroke-width="0.398103" stroke-miterlimit="10" stroke-linecap="round" stroke-linejoin="round"/>
<path d="M223.859 7.92625C223.859 7.92625 224.836 -11.4046 223.859 -26.2232C222.882 -40.9906 215.171 -46.2719 223.859 -50.6816C232.547 -55.0913 261.231 -53.9633 270.176 -49.5536C279.172 -45.1439 273.466 -24.7875 273.877 -15.8656C274.288 -6.89238 275.882 7.87497 275.882 7.87497H223.859V7.92625Z" fill="#82D2A8"/>
<path opacity="0.2" d="M245.807 -21.7105C245.807 -21.7105 239.844 -25.8125 236.605 -20.7362C233.367 -15.6087 251.05 9.92653 254.083 10.0291C257.116 10.1829 271.716 10.0291 271.716 10.0291L279.581 -7.25076C279.581 -7.25076 276.188 -43.5538 269.711 -44.1691C263.234 -44.8357 258.864 -30.9401 257.939 -22.7872C257.014 -14.6344 257.887 -11.4041 257.887 -11.4041L245.807 -21.7105Z" fill="black"/>
<path d="M223.859 7.92625C223.859 7.92625 224.836 -11.4046 223.859 -26.2232C222.882 -40.9906 215.171 -46.2719 223.859 -50.6816C232.547 -55.0913 261.231 -53.9633 270.176 -49.5536C279.172 -45.1439 273.466 -24.7875 273.877 -15.8656C274.288 -6.89238 275.882 7.87497 275.882 7.87497H223.859V7.92625Z" stroke="#263238" stroke-width="0.398103" stroke-miterlimit="10" stroke-linecap="round" stroke-linejoin="round"/>
<path d="M241.541 0.953224C241.541 1.51725 241.079 1.92744 240.565 1.92744C239.999 1.92744 239.588 1.46597 239.588 0.953224C239.588 0.3892 240.051 -0.0209961 240.565 -0.0209961C241.13 -0.0209961 241.541 0.3892 241.541 0.953224Z" fill="#858585"/>
<path d="M272.077 -48.682C267.194 -51.3483 260.511 -41.5547 260.408 -29.7613C260.254 -17.9679 260.1 -15.8143 260.1 -15.8143L245.398 -31.6072C245.398 -31.6072 244.421 -27.5052 237.43 -24.2235C237.43 -24.2235 240.565 -14.9939 246.58 -6.02071C252.594 2.95251 258.403 10.9002 262.105 10.9002C265.806 10.9002 272.694 2.23465 275.213 -9.14852C280.611 -33.607 282.204 -43.1442 272.077 -48.682Z" fill="#82D2A8" stroke="#263238" stroke-width="0.398103" stroke-miterlimit="10" stroke-linecap="round" stroke-linejoin="round"/>
<path d="M267.707 7.00354C270.175 4.02956 272.642 -0.380135 274.287 -5.55896" stroke="#7F7F7F" stroke-width="0.398103" stroke-linecap="round" stroke-linejoin="round"/>
<path d="M237.43 -24.2235C237.43 -24.2235 240.565 -14.9939 246.58 -6.02068C250.024 -0.841851 253.468 4.02932 256.45 7.20841" stroke="#7F7F7F" stroke-width="0.398103" stroke-linecap="round" stroke-linejoin="round"/>
<path d="M245.139 8.38831H222.109V10.4906H244.985C245.448 10.4906 245.859 10.0804 245.859 9.61893V9.05489C245.808 8.69596 245.499 8.38831 245.139 8.38831Z" fill="#CBF2D6" stroke="#263238" stroke-width="0.530804" stroke-miterlimit="10" stroke-linecap="round" stroke-linejoin="round"/>
<path d="M210.953 -26.1202H213.832C214.757 -26.1202 215.528 -25.5049 215.785 -24.6332L225.244 7.87547C225.604 9.15736 224.627 10.4905 223.291 10.4905H220.772L210.953 -26.1202Z" fill="#263238" stroke="#263238" stroke-width="0.398103" stroke-miterlimit="10" stroke-linecap="round" stroke-linejoin="round"/>
<path d="M180.316 10.4908H222.314C223.702 10.4908 224.679 9.20889 224.268 7.87572L214.809 -24.633C214.552 -25.5047 213.73 -26.12 212.856 -26.12H170.857C169.469 -26.12 168.492 -24.8381 168.903 -23.5049L178.362 9.00378C178.619 9.87546 179.39 10.4908 180.316 10.4908Z" fill="#858585" stroke="#263238" stroke-width="0.398103" stroke-miterlimit="10" stroke-linecap="round" stroke-linejoin="round"/>
<path d="M68.0965 -21.4542C68.0965 -21.4542 74.368 -1.76444 75.6018 7.92662H24.4013C24.4013 7.92662 23.9387 -15.1473 25.8921 -22.531L68.0965 -21.4542Z" fill="#ED2E5C" stroke="#263238" stroke-width="0.398103" stroke-miterlimit="10" stroke-linecap="round" stroke-linejoin="round"/>
<path d="M46.5566 2.69653C47.6876 3.72204 49.9494 7.92663 49.9494 7.92663" stroke="#263238" stroke-width="0.398103" stroke-miterlimit="10" stroke-linecap="round" stroke-linejoin="round"/>
<path d="M35.7617 -10.5839C35.7617 -10.5839 39.8228 -4.27698 44.4493 0.645466" stroke="#263238" stroke-width="0.398103" stroke-miterlimit="10" stroke-linecap="round" stroke-linejoin="round"/>
<path d="M41.5207 7.92652C41.5207 7.92652 27.6411 -21.3005 38.2821 -30.5814C48.9232 -39.8623 71.3876 -37.4011 75.1402 -36.273C78.9443 -35.1449 82.7483 -24.1207 82.9539 -18.2753C83.1596 -12.3786 86.8608 -12.4811 81.566 7.87524H41.5207V7.92652Z" fill="url(#paint0_linear)"/>
<path opacity="0.2" d="M46.0442 -13.8144C46.0442 -13.8144 53.241 -21.6595 53.7037 -19.0958C54.1663 -16.532 45.3245 -1.55949 54.4748 2.38873C63.625 6.38823 70.0508 1.97853 75.1914 2.38873C80.2806 2.79894 82.5425 5.87547 87.7345 6.18313C92.9779 6.49078 91.847 8.95202 91.847 8.95202H33.0898V-2.99521L46.0442 -13.8144Z" fill="black"/>
<path d="M41.5207 7.92652C41.5207 7.92652 27.6411 -21.3005 38.2821 -30.5814C48.9232 -39.8623 71.3876 -37.4011 75.1402 -36.273C78.9443 -35.1449 82.7483 -24.1207 82.9539 -18.2753C83.1596 -12.3786 86.8608 -12.4811 81.566 7.87524H41.5207V7.92652Z" stroke="#263238" stroke-width="0.398103" stroke-miterlimit="10" stroke-linecap="round" stroke-linejoin="round"/>
<path d="M43.4226 -32.1713C40.7495 -32.12 38.282 -31.1458 37.1511 -29.4024C32.9358 -23.0955 27.641 -11.4047 24.2482 -3.61079C20.8039 4.18309 22.5518 8.90044 24.2482 9.46447C25.9446 10.0285 32.0619 11.9257 43.8339 6.2341C55.6059 0.542519 54.4749 -0.585537 54.4749 -0.585537L61.2605 -3.71335C61.5175 -3.8159 61.569 -4.17482 61.3119 -4.37992C60.2324 -5.14906 58.0733 -7.30263 57.9191 -12.3789C57.9191 -12.6353 57.6621 -12.8404 57.4051 -12.7378L51.0821 -10.1741C51.0821 -10.1741 50.1568 -11.1996 44.605 -9.14856C44.605 -9.14856 50.1054 -13.148 52.5729 -16.1733C53.7552 -17.609 54.1151 -20.2753 53.7038 -22.9929" fill="url(#paint1_linear)"/>
<path d="M43.4226 -32.1713C40.7495 -32.12 38.282 -31.1458 37.1511 -29.4024C32.9358 -23.0955 27.641 -11.4047 24.2482 -3.61079C20.8039 4.18309 22.5518 8.90044 24.2482 9.46447C25.9446 10.0285 32.0619 11.9257 43.8339 6.2341C55.6059 0.542519 54.4749 -0.585537 54.4749 -0.585537L61.2605 -3.71335C61.5175 -3.8159 61.569 -4.17482 61.3119 -4.37992C60.2324 -5.14906 58.0733 -7.30263 57.9191 -12.3789C57.9191 -12.6353 57.6621 -12.8404 57.4051 -12.7378L51.0821 -10.1741C51.0821 -10.1741 50.1568 -11.1996 44.605 -9.14856C44.605 -9.14856 50.1054 -13.148 52.5729 -16.1733C53.7552 -17.609 54.1151 -20.2753 53.7038 -22.9929" stroke="#263238" stroke-width="0.398103" stroke-miterlimit="10" stroke-linecap="round" stroke-linejoin="round"/>
<path d="M62.1357 8.38745H85.1656V10.4898H62.2899C61.8273 10.4898 61.416 10.0796 61.416 9.6181V9.05405C61.4674 8.69511 61.7759 8.38745 62.1357 8.38745Z" fill="#858585" stroke="#263238" stroke-width="0.530804" stroke-miterlimit="10" stroke-linecap="round" stroke-linejoin="round"/>
<path d="M96.2684 -26.1206H93.3897C92.4644 -26.1206 91.6933 -25.5053 91.4363 -24.6336L81.9776 7.87513C81.6177 9.15702 82.5945 10.4902 83.931 10.4902H86.4499L96.2684 -26.1206Z" fill="#263238" stroke="#263238" stroke-width="0.398103" stroke-miterlimit="10" stroke-linecap="round" stroke-linejoin="round"/>
<path d="M133.178 10.4902H84.9076C83.5197 10.4902 82.543 9.20829 82.9542 7.87513L92.4129 -24.6336C92.67 -25.5053 93.4925 -26.1206 94.3664 -26.1206H142.637C144.025 -26.1206 145.001 -24.8387 144.59 -23.5055L135.131 9.00318C134.874 9.87487 134.103 10.4902 133.178 10.4902Z" fill="#858585" stroke="#263238" stroke-width="0.530804" stroke-miterlimit="10" stroke-linecap="round" stroke-linejoin="round"/>
</g>
</g>
<defs>
<linearGradient id="paint0_linear" x1="56.6248" y1="2.85281" x2="60.5676" y2="-46.8019" gradientUnits="userSpaceOnUse">
<stop stop-color="#F57B51"/>
<stop offset="1" stop-color="#FFD31D"/>
</linearGradient>
<linearGradient id="paint1_linear" x1="39.7543" y1="5.48111" x2="45.6285" y2="-51.0127" gradientUnits="userSpaceOnUse">
<stop stop-color="#F57B51"/>
<stop offset="1" stop-color="#FFD31D"/>
</linearGradient>
<clipPath id="clip0">
<rect width="310" height="282.092" fill="white" transform="translate(0 -233)"/>
</clipPath>
</defs>
</svg>
